<?xml version="1.0" encoding="utf-8"?>
<!-- Generator: Adobe Illustrator 22.0.0, SVG Export Plug-In . SVG Version: 6.00 Build 0)  -->
<svg version="1.1" id="Layer_1" xmlns="http://www.w3.org/2000/svg" xmlns:xlink="http://www.w3.org/1999/xlink" x="0px" y="0px"
	 viewBox="0 0 416.5 123.9" style="enable-background:new 0 0 416.5 123.9;" xml:space="preserve">
<style type="text/css">
	.st0{fill:#FFFFFF;}
</style>
<title>png</title>
<path class="st0" d="M5.2,123.6L5.2,123.6L5.2,123.6L5.2,123.6z"/>
<path class="st0" d="M101.8,0.1c-33.1,0-65.7,0-98.4-0.1C0.4,0,0,1.3,0,3.9c0.1,12,0.1,24,0.1,36c0,6.8,0,6.8,6.8,6.8h38.6
	L5.3,123.6l0,0h0l-0.1,0.3H13c4,0.1,6.4-2.2,8.5-6.4C34.7,91.6,48.4,65.9,62,40.1c0.7-1.4,1.4-2.8,2.3-4.6c-1.1-0.1-1.8-0.3-2.4-0.3
	c-15.5,0-31-0.1-46.5,0.1c-3,0-4-0.7-3.9-3.9c0.3-5,0.3-10,0-15c-0.3-4,1-4.9,4.9-4.9c25.1,0.2,50.2,0.1,75.2,0.1H97l6.1-11.5H101.8
	z M101.7,0.4C101.8,0.3,101.8,0.3,101.7,0.4L101.7,0.4L101.7,0.4z"/>
<path class="st0" d="M94.3,17.7l-2.6,6.5v0c-16.4,31.2-32.9,62.3-49,93.7c-2.1,4-4.3,6.2-8.3,6h-7.8l0.1-0.3l0,0
	c16.6-31.7,32.8-62.6,49-93.6c-1.7-1.3-3.4-0.7-5-0.7c-16.3,0-32.7-0.1-49,0c-2.4,0-4-0.5-4.2-2.1v-0.1l0-0.4l-0.2-6.6v-0.1
	c0-1.3,0.7-2.4,3.6-2.4C45.3,17.6,69.8,17.7,94.3,17.7z"/>
<path class="st0" d="M337.6,91.9c-17.7,0-31.2-13.5-31.2-31.3c-0.3-17.1,13.3-31.1,30.4-31.4c0.3,0,0.5,0,0.8,0
	c18-0.1,31.8,13.6,31.8,31.4C369.4,78.4,355.7,91.9,337.6,91.9z M357.8,60.4c0-12-8.2-20.5-19.8-20.6c-11.5-0.1-20.3,9-20.2,20.9
	c0.1,11.7,8.6,20.4,20,20.5C349.6,81.3,357.8,72.7,357.8,60.4z"/>
<path class="st0" d="M196.1,90.8c0.4,0,0.8,0,1.3,0H196.1z"/>
<path class="st0" d="M232.6,39.2c-3.5-9.1-3.5-9-13.2-8.8c-2.4,0.1-3.4,0.9-4.2,3.1c-6.6,17.9-13.3,35.8-20.2,53.7
	c-1,2.5-0.5,3.4,1.1,3.5h7.6c2,0.2,2.9-0.7,3.6-2.5c1.6-3.9,1.4-9.6,5.1-11.3c0.5-0.3,1.1-0.4,1.7-0.6v0h17.7
	c2.2,0.2,3.4,1.6,4.3,4.4c3.4,10.5,3.6,10.4,15.8,9.6C245.4,73.1,239,56.1,232.6,39.2z M215.3,65.5c2.5-7.2,4.9-14.4,7.6-22.4
	c2.7,7.9,5.1,14.9,7.6,22.4H215.3z"/>
<path class="st0" d="M149.6,60.2c0-8.7,0.1-17.3,0-26c0-2.5,0.2-3.8,3.4-3.8c10.5,0.2,21,0.2,31.5,0c2.7,0,3.3,0.9,3.3,3.4
	c0.1,7.3,0.2,7.3-7.3,7.3c-5.5,0-11,0.1-16.5,0c-2.4-0.1-3.1,0.7-3.2,3.1c-0.5,11-0.6,11,10.3,11c3.7,0,7.3,0.1,11,0
	c2.2-0.1,2.7,0.7,2.9,2.8c0.4,7.8,0.5,7.8-7.3,7.8c-4.3,0-8.7,0.2-13-0.1c-3.2-0.2-3.8,1-3.9,4c0,10.1-0.2,10.1,9.7,10.1
	c4.5,0,9,0.2,13.5-0.1c3.2-0.2,3.8,1,3.8,3.9c-0.1,7,0.1,7-7.1,7c-9.2,0-18.3-0.1-27.5,0.1c-2.9,0.1-3.6-0.8-3.6-3.6
	C149.7,78.2,149.6,69.2,149.6,60.2z"/>
<path class="st0" d="M137.7,78.2c-1.4,7.1-8.7,12.9-17.2,13.6c-1,0.1-2,0-3,0c-9.8,0-16.7-4.4-21-13.2c-1.1-2.2-1.1-3.7,0.6-4.5
	c0,0,0.1,0,0.1,0l0.4-0.1l0.3-0.1l5.3-2l0,0c1.7-0.6,2.7-0.3,3.9,2.2c2.9,6.4,8.2,8.6,14.3,6.8c2.7-0.8,4.8-2.3,5.3-5.3
	c0.6-2.9-0.7-5.8-3.1-7.3c-4.2-2.9-9.1-4.1-13.7-6c-8.6-3.7-12.5-9.1-12.3-16.8c0.1-3.9,1.7-7.5,4.4-10.3c8.4-8.7,25.2-7.2,32.1,2.7
	c2.1,3,2.2,4.7-1.7,6.1c-3.4,1.2-6.1,3-9-1.5c-2.3-3.5-6.7-3.1-10.5-1.8c-2.1,0.8-3.8,2.1-4.2,4.5c-0.4,2.6,0.8,4.5,2.8,6
	c2.3,1.7,5.1,2.4,7.7,3.5c2.8,1.1,5.7,2,8.3,3.3C136.2,62.1,139.6,69,137.7,78.2z"/>
<path class="st0" d="M297.7,78.1c-1.3,6.8-8,12.5-16.1,13.6c-1.3,0.2-2.6,0.2-3,0.2c-10.8,0-18.7-5.1-22.3-13.7
	c-0.8-1.9-1-3.2,0.5-4c0.1,0,0.1-0.1,0.2-0.1l0.6-0.2h0l4.5-1.7l0.1-0.1c0.4-0.2,0.8-0.3,1.1-0.4c0,0,0,0,0,0l0,0
	c1.5-0.4,2.7,0.1,3.8,2.6c2.6,6,7.6,8,13.5,6.6c2.9-0.7,5.3-2.2,5.9-5.4c0.6-3.3-0.7-5.8-3.5-7.7c-4.2-2.8-9.1-3.9-13.7-5.9
	c-8.5-3.7-12.3-9.3-11.9-17.1c0.2-3.4,1.5-6.5,3.7-9.1c8.3-9.8,26.6-8.3,33.3,2.7c1.7,2.7,1.2,4-1.7,5.1c-3.6,1.3-6.6,3.5-9.9-1.5
	c-2.3-3.6-7.2-3-11-1.1c-4.3,2.1-4.7,6.7-1,9.7c2.1,1.7,4.6,2.5,7.1,3.4c3.3,1.1,6.5,2.4,9.7,3.9C296.3,62.2,299.5,69.1,297.7,78.1z
	"/>
<path class="st0" d="M409.6,90.7c-8.8,0-17.7-0.1-26.5,0.1c-2.8,0.1-3.6-0.8-3.6-3.6c0.2-9,0.1-18,0.1-27c0-8.7,0.2-17.3-0.1-26
	c-0.1-2.5,0.5-3.6,2.2-3.8h0l1.1,0h0l4.9,0l0.3,0c0.2,0,0.4,0,0.6,0c1.7,0.3,2.4,1.6,2.3,4.3c-0.2,13.7,0,27.3-0.2,41
	c0,3.1,0.6,4.4,4.1,4.3c6-0.3,12,0.1,18-0.1c2.8-0.1,3.7,0.7,3.7,3.6C416.5,90.7,416.7,90.7,409.6,90.7z"/>
<path class="st0" d="M101.8,0.3L101.8,0.3C101.8,0.3,101.8,0.3,101.8,0.3L101.8,0.3z"/>
<path class="st0" d="M101.8,0.3L101.8,0.3C101.8,0.3,101.8,0.3,101.8,0.3L101.8,0.3z"/>
<path class="st0" d="M97.2,74.1C97.2,74.1,97.2,74.1,97.2,74.1L97.2,74.1L97.2,74.1z"/>
</svg>
